<svg width="24" height="24" viewBox="0 0 24 24" fill="none" xmlns="http://www.w3.org/2000/svg">
<g clip-path="url(#clip0_10709_174905)">
<path d="M11.9494 5.9751H12.05C12.05 9.26129 14.7388 11.9499 18.0249 11.9499V12.0505C14.7387 12.0505 12.05 14.7392 12.05 18.0255H11.9494C11.9494 14.7392 9.26063 12.0505 5.97443 12.0505V11.9499C9.26063 11.9499 11.9494 9.26129 11.9494 5.9751Z" fill="#22A33F"/>
<path d="M18.0255 0C21.3252 0 24.0002 2.67511 24.0002 5.97484C24.0002 9.27471 21.3252 11.9497 18.0255 11.9497V5.97498H12.0506C12.0506 2.67511 14.7256 0 18.0255 0Z" fill="#22A33F"/>
<path d="M5.97487 0C9.27461 0 11.9496 2.67511 11.9496 5.97484H5.97473V11.9497C2.67484 11.9497 0 9.27471 0 5.97484C0 2.67511 2.67498 0 5.97487 0Z" fill="#22A33F"/>
<path d="M18.0255 12.0503C21.3252 12.0503 24.0002 14.7254 24.0002 18.025C24.0002 21.3249 21.3252 23.9998 18.0255 23.9998C14.7257 23.9998 12.0507 21.325 12.0506 18.0253H18.0253L18.0255 12.0503Z" fill="#22A33F"/>
<path d="M11.9497 18.0253C11.9496 21.325 9.27461 23.9998 5.975 23.9998C2.67498 23.9998 0 21.3249 0 18.025C0 14.7254 2.67484 12.0504 5.97473 12.0503V18.0253H11.9497V18.0253Z" fill="#22A33F"/>
</g>
<defs>
<clipPath id="clip0_10709_174905">
<rect width="24" height="24" fill="white"/>
</clipPath>
</defs>
</svg>
