<svg width="24" height="24" viewBox="0 0 24 24" fill="none" xmlns="http://www.w3.org/2000/svg">
<path fill-rule="evenodd" clip-rule="evenodd" d="M14.4978 8.30263L12.0899 12.5502L14.4818 16.7698H14.4813L12.0896 12.5507L12.0892 12.5502L12.0896 12.5496L14.4973 8.30189H14.4982L14.4978 8.30263Z" fill="#4D4DFF"/>
<path d="M4.86455 8.30189L0 16.7698H4.91389L7.28945 12.5507L9.68137 8.30263L9.68179 8.30189L12.0896 12.5496L14.4973 8.30189L16.9358 4H16.8433H7.33585L4.86455 8.30189Z" fill="#4D4DFF"/>
<path d="M7.33585 20.9358H16.8433H16.9358L19.2652 16.7698L24 8.30189H19.3146L16.8897 12.5507L14.4818 16.7698H14.4813L12.0896 12.5507L9.69784 16.7698H9.69735L7.33585 20.9358Z" fill="#4D4DFF"/>
</svg>
