<?xml version="1.0" encoding="utf-8"?>
<svg version="1.1" xmlns="http://www.w3.org/2000/svg" xmlns:xlink="http://www.w3.org/1999/xlink" x="0px" y="0px"
	 viewBox="0 0 24 24" style="enable-background:new 0 0 24 24;" xml:space="preserve">
<style type="text/css">
	.st0{fill:#2B4CFF;}
</style>
<g>
	<path class="st0" d="M8.4,14.8c0-2,1.6-3.6,3.6-3.6h1.7c2,0,3.6,1.6,3.6,3.6v5.3c0,0.3-0.2,0.6-0.6,0.6H8.9c-0.3,0-0.6-0.2-0.6-0.6
		V14.8z"/>
	<path class="st0" d="M15.6,7.5c0,1.7-1.4,3.1-3.1,3.1c-1.7,0-3.1-1.4-3.1-3.1s1.4-3.1,3.1-3.1C14.3,4.5,15.6,5.8,15.6,7.5z"/>
	<path class="st0" d="M0,14.2c0-2,1.6-3.6,3.6-3.6h2.2c2,0,3.6,1.6,3.6,3.6v5.9c0,0.3-0.2,0.6-0.6,0.6H0.6c-0.3,0-0.6-0.2-0.6-0.6
		V14.2z"/>
	<path class="st0" d="M8.1,6.7c0,1.8-1.5,3.3-3.3,3.3c-1.8,0-3.3-1.5-3.3-3.3s1.5-3.3,3.3-3.3C6.6,3.4,8.1,4.9,8.1,6.7z"/>
	<path class="st0" d="M19,17.1c-0.7-0.4-0.7-1.5,0-1.9l3.3-1.9c0.7-0.4,1.7,0.1,1.7,1v3.9c0,0.9-0.9,1.4-1.7,1L19,17.1z"/>
</g>
</svg>
