<svg width="24" height="24" viewBox="0 0 24 24" fill="none" xmlns="http://www.w3.org/2000/svg">
<path d="M17 8C17 12.4183 13.4183 16 9 16C4.58172 16 1 12.4183 1 8C1 3.58172 4.58172 0 9 0C13.4183 0 17 3.58172 17 8Z" fill="#FC8C25"/>
<path d="M1 8H3.85714C6.69746 8 9 10.3878 9 13.3333V24H8.42857C4.32589 24 1 20.5509 1 16.2963V8Z" fill="#57BC3E"/>
<path d="M1 17C1 13.134 4.69365 10 9.25 10H14.75C19.3063 10 23 13.134 23 17C23 20.866 19.3063 24 14.75 24H8.25C3.69365 24 1 20.866 1 17Z" fill="#76DF44"/>
</svg>
