<svg width="24" height="24" viewBox="0 0 24 24" fill="none" xmlns="http://www.w3.org/2000/svg">
<g clip-path="url(#clip0_10709_174893)">
<path d="M12.0067 21.1652C12.0067 21.3087 12.0067 21.4495 11.9987 21.5916C5.36869 21.5876 0 16.1884 0 9.52365C0 9.38153 0 9.23941 0.00791648 9.09863C6.63137 9.10131 12.0067 14.5031 12.0067 21.1652Z" fill="#377BE1"/>
<path d="M24 9.52401C24 16.1861 18.6313 21.5906 12.0065 21.5906C12.0065 21.4485 12.0065 21.3064 12.0065 21.1643C12.0065 14.5022 17.3739 9.09766 23.9987 9.09766C23.9974 9.23977 24 9.38189 24 9.52401Z" fill="#377BE1"/>
<path d="M12.0065 10.8968C12.87 10.8862 13.7112 10.6163 14.4242 10.1211C15.1371 9.62595 15.69 8.92754 16.0133 8.11379C16.3365 7.30005 16.4157 6.40733 16.2409 5.54796C16.0661 4.68858 15.645 3.90095 15.0307 3.28416C14.4164 2.66738 13.6363 2.24899 12.7886 2.08164C11.9408 1.91429 11.0633 2.00547 10.2665 2.34368C9.46959 2.6819 8.78896 3.25206 8.31022 3.98242C7.83147 4.71277 7.57599 5.57069 7.57593 6.44824C7.57904 7.03606 7.69614 7.61749 7.92055 8.15928C8.14496 8.70107 8.47227 9.19261 8.88376 9.60576C9.29525 10.0189 9.78285 10.3456 10.3187 10.5671C10.8545 10.7887 11.4281 10.9007 12.0065 10.8968Z" fill="#00CD69"/>
</g>
<defs>
<clipPath id="clip0_10709_174893">
<rect width="24" height="24" fill="white"/>
</clipPath>
</defs>
</svg>
